<svg preserveAspectRatio="none" width="100%" height="100%" overflow="visible" style="display: block;" viewBox="0 0 12 12" fill="none" xmlns="http://www.w3.org/2000/svg">
<g id="Star">
<path id="Vector" d="M10.9825 5.38357L8.87312 7.20373L9.51577 9.92576C9.55123 10.0735 9.5421 10.2285 9.48953 10.3711C9.43697 10.5136 9.34332 10.6375 9.22043 10.7268C9.09754 10.8162 8.95091 10.8672 8.79907 10.8733C8.64723 10.8794 8.49699 10.8403 8.36733 10.7611L6.00015 9.3042L3.63155 10.7611C3.50191 10.8399 3.35185 10.8785 3.20027 10.8722C3.0487 10.8659 2.90238 10.8149 2.77974 10.7256C2.65711 10.6363 2.56364 10.5127 2.5111 10.3703C2.45857 10.228 2.44932 10.0733 2.48452 9.92576L3.12952 7.20373L1.02015 5.38357C0.905443 5.28444 0.822487 5.15371 0.781639 5.00771C0.74079 4.8617 0.743861 4.7069 0.790466 4.56264C0.837072 4.41837 0.925146 4.29103 1.04369 4.19652C1.16224 4.10201 1.306 4.04452 1.45702 4.03123L4.22265 3.80811L5.28952 1.22623C5.34727 1.08552 5.44555 0.96516 5.57188 0.880452C5.69821 0.795744 5.84688 0.750515 5.99897 0.750515C6.15107 0.750515 6.29974 0.795744 6.42607 0.880452C6.55239 0.96516 6.65068 1.08552 6.70843 1.22623L7.77483 3.80811L10.5405 4.03123C10.6918 4.04403 10.836 4.1012 10.9549 4.19558C11.0739 4.28996 11.1624 4.41735 11.2093 4.56179C11.2562 4.70623 11.2594 4.8613 11.2186 5.00757C11.1777 5.15383 11.0946 5.2848 10.9797 5.38404L10.9825 5.38357Z" fill="var(--fill-0, white)"/>
</g>
</svg>
