<svg preserveAspectRatio="none" width="100%" height="100%" overflow="visible" style="display: block;" viewBox="0 0 17 17" fill="none" xmlns="http://www.w3.org/2000/svg">
<path id="Vector" d="M11.2375 2.50001C11.2375 2.33425 11.3034 2.17528 11.4206 2.05807C11.5378 1.94086 11.6967 1.87501 11.8625 1.87501H13.1125V0.625009C13.1125 0.459249 13.1784 0.300277 13.2956 0.183067C13.4128 0.0658569 13.5717 8.88098e-06 13.7375 8.88098e-06C13.9033 8.88098e-06 14.0622 0.0658569 14.1795 0.183067C14.2967 0.300277 14.3625 0.459249 14.3625 0.625009V1.87501H15.6125C15.7783 1.87501 15.9372 1.94086 16.0545 2.05807C16.1717 2.17528 16.2375 2.33425 16.2375 2.50001C16.2375 2.66577 16.1717 2.82474 16.0545 2.94195C15.9372 3.05916 15.7783 3.12501 15.6125 3.12501H14.3625V4.37501C14.3625 4.54077 14.2967 4.69974 14.1795 4.81695C14.0622 4.93416 13.9033 5.00001 13.7375 5.00001C13.5717 5.00001 13.4128 4.93416 13.2956 4.81695C13.1784 4.69974 13.1125 4.54077 13.1125 4.37501V3.12501H11.8625C11.6967 3.12501 11.5378 3.05916 11.4206 2.94195C11.3034 2.82474 11.2375 2.66577 11.2375 2.50001ZM16.125 6.77188C16.4105 8.4692 16.1493 10.2133 15.3789 11.7525C14.6086 13.2916 13.369 14.5461 11.8392 15.3349C10.3094 16.1236 8.56854 16.4057 6.86793 16.1406C5.16732 15.8754 3.59498 15.0766 2.37794 13.8596C1.16089 12.6425 0.362116 11.0702 0.096943 9.36959C-0.168231 7.66897 0.113919 5.92809 0.902652 4.39829C1.69139 2.86848 2.94589 1.62893 4.48504 0.858582C6.02418 0.0882391 7.76832 -0.173026 9.46563 0.112509C9.62787 0.1412 9.77222 0.232792 9.86728 0.367361C9.96234 0.50193 10.0004 0.66859 9.97323 0.831089C9.94604 0.993587 9.85579 1.13878 9.72211 1.23508C9.58843 1.33138 9.42213 1.371 9.25938 1.34532C8.27355 1.17948 7.26342 1.23046 6.29929 1.4947C5.33516 1.75894 4.44019 2.23011 3.67666 2.8754C2.91314 3.52069 2.2994 4.32461 1.87816 5.23122C1.45692 6.13782 1.2383 7.12532 1.23751 8.12501C1.23603 9.80797 1.85458 11.4325 2.97501 12.6883C3.67206 11.6782 4.65221 10.8967 5.7922 10.4422C5.17984 9.95989 4.733 9.29875 4.51381 8.55071C4.29463 7.80267 4.31399 7.00492 4.56922 6.2684C4.82444 5.53188 5.30283 4.8932 5.93787 4.44117C6.57291 3.98915 7.33302 3.74624 8.11251 3.74624C8.892 3.74624 9.65211 3.98915 10.2871 4.44117C10.9222 4.8932 11.4006 5.53188 11.6558 6.2684C11.911 7.00492 11.9304 7.80267 11.7112 8.55071C11.492 9.29875 11.0452 9.95989 10.4328 10.4422C11.5728 10.8967 12.553 11.6782 13.25 12.6883C14.3704 11.4325 14.989 9.80797 14.9875 8.12501C14.9875 7.74074 14.9557 7.35713 14.8922 6.97813C14.8778 6.89683 14.8797 6.81349 14.8977 6.73291C14.9157 6.65234 14.9495 6.57613 14.9972 6.5087C15.0448 6.44126 15.1053 6.38393 15.1752 6.34002C15.2452 6.29611 15.3231 6.26649 15.4045 6.25286C15.4859 6.23924 15.5693 6.24188 15.6497 6.26065C15.7301 6.27941 15.806 6.31392 15.873 6.36217C15.94 6.41043 15.9967 6.47149 16.04 6.54181C16.0832 6.61213 16.1121 6.69033 16.125 6.77188ZM8.11251 10C8.60696 10 9.09031 9.85339 9.50143 9.57868C9.91256 9.30398 10.233 8.91353 10.4222 8.45672C10.6114 7.9999 10.6609 7.49724 10.5645 7.01228C10.468 6.52733 10.2299 6.08187 9.88028 5.73224C9.53064 5.38261 9.08519 5.14451 8.60023 5.04805C8.11528 4.95158 7.61262 5.00109 7.1558 5.19031C6.69898 5.37953 6.30854 5.69996 6.03383 6.11108C5.75913 6.52221 5.61251 7.00556 5.61251 7.50001C5.61251 8.16305 5.8759 8.79893 6.34474 9.26778C6.81358 9.73662 7.44947 10 8.11251 10ZM8.11251 15C9.63857 15.0015 11.1213 14.4928 12.325 13.5547C11.8729 12.8476 11.25 12.2656 10.5138 11.8626C9.77763 11.4595 8.95182 11.2482 8.11251 11.2482C7.27319 11.2482 6.44738 11.4595 5.7112 11.8626C4.97501 12.2656 4.35214 12.8476 3.90001 13.5547C5.10368 14.4928 6.58644 15.0015 8.11251 15Z" fill="var(--fill-0, #0D0D0F)"/>
</svg>
