<svg preserveAspectRatio="none" width="100%" height="100%" overflow="visible" style="display: block;" viewBox="0 0 49 53" fill="none" xmlns="http://www.w3.org/2000/svg">
<g id="Group">
<path id="Vector" d="M25.0984 44.0795C25.0756 44.055 25.0687 44.0483 25.0984 44.0795Z" fill="var(--fill-0, white)"/>
<path id="Vector_2" d="M47.4986 51.1608H46.1768C44.8216 51.1608 43.5219 50.6351 42.5622 49.6988L34.4976 41.8241C34.3132 41.6438 34.3177 41.3505 34.5087 41.1745L39.6607 36.4497C43.022 33.6691 45.8124 31.1449 45.8124 26.8393V11.3049H32.9358H45.8035L39.383 17.609L32.9358 11.3049L4.68988 32.5395H14.434L2.24386 42.6756H12.0613L0 52.6206H12.1413L21.641 45.4932C21.7921 45.378 22.0076 45.3932 22.1431 45.5257L24.5158 47.8458C24.889 48.2108 25.0979 48.7039 25.0979 49.2187C25.0979 50.2919 24.2092 51.1608 23.1117 51.1608H21.4833C20.659 51.1608 19.9903 51.8147 19.9903 52.6206H48.9916C48.9916 51.8147 48.3229 51.1608 47.4986 51.1608ZM31.2918 50.1811L24.6957 43.7314C24.5336 43.5728 24.5491 43.31 24.7313 43.1709L35.5062 35.0116L31.8339 38.8132C30.8963 39.7842 30.552 41.2028 31.0519 42.4475C31.2229 42.8711 31.4784 43.2687 31.8183 43.6119L36.406 47.9631C36.7748 48.3129 36.9836 48.7951 36.9836 49.2991C36.9836 50.3266 36.1305 51.1608 35.0797 51.1608H33.7112C32.8047 51.1608 31.9361 50.8089 31.294 50.1811H31.2918Z" fill="var(--fill-0, white)"/>
<path id="Vector_3" d="M38.1189 2.42868C36.7859 0.888487 34.8264 0 32.7625 0H21.4721L32.9269 11.3049H33.309H45.8035L38.1167 2.4265L38.1189 2.42868ZM34.0244 4.1861C33.5134 4.1861 33.098 3.77987 33.098 3.28023C33.098 2.7806 33.5134 2.37437 34.0244 2.37437C34.5354 2.37437 34.9508 2.7806 34.9508 3.28023C34.9508 3.77987 34.5354 4.1861 34.0244 4.1861Z" fill="var(--fill-0, white)"/>
</g>
</svg>
